#!OML:ASF H:\MichaelJackson\Top Level 1\Subject 1\Session 1\male.ASF
:FULLY-SPECIFIED
:DEGREES
351
root 4.69692 16.8706 -16.5183 11.242 4.30213 7.50099
lowerback -1.8574 0.985022 -7.92222
upperback 4.45857 1.73526 -0.810497
thorax 5.50466 0.536428 3.70066
lowerneck -12.1672 -4.67181 -0.575526
upperneck 47.5406 -7.4357 0.443878
head 21.297 -2.78311 -1.1307
rclavicle 1.45113e-014 -1.03368e-014
rhumerus -9.04768 38.5793 -84.8261
rradius 134.003
rwrist -25.9842
rhand -45.9858 -57.7613
rfingers 7.12502
rthumb -18.7321 -446.879
lclavicle 1.45113e-014 -1.03368e-014
lhumerus -74.9034 -11.2404 103.943
lradius 64.0146
lwrist 17.606
lhand -0.437475 11.4562
lfingers 7.12502
lthumb 25.1713 39.8164
rfemur -47.0122 -6.76842 15.167
rtibia 62.6425
rfoot 5.74358 12.1196
rtoes 19.7315
lfemur -20.3427 7.34855 -31.2201
ltibia 32.4953
lfoot -18.0664 -10.4499
ltoes 34.7146
352
root 4.71898 16.8111 -16.5128 11.0894 4.42651 7.86123
lowerback -1.63149 1.0193 -8.12332
upperback 4.42827 1.77293 -0.94924
thorax 5.33925 0.557448 3.66363
lowerneck -12.1441 -4.73975 -0.575903
upperneck 47.5778 -7.56027 0.48112
head 21.3238 -2.82271 -1.13596
rclavicle -1.59028e-014 -3.77691e-014
rhumerus -9.19958 38.609 -84.8332
rradius 134.154
rwrist -25.5302
rhand -46.084 -57.1488
rfingers 7.12502
rthumb -18.8265 -446.258
lclavicle -1.59028e-014 -3.77691e-014
lhumerus -74.7478 -11.201 103.989
lradius 63.6173
lwrist 17.2098
lhand -1.54475 11.13
lfingers 7.12502
lthumb 24.11 39.6352
rfemur -47.5324 -7.01703 14.7265
rtibia 63.8416
rfoot 5.92037 11.9731
rtoes 19.6597
lfemur -19.8958 7.38256 -31.7064
ltibia 32.3566
lfoot -18.9707 -10.3174
ltoes 34.6815
353
root 4.73874 16.7585 -16.5079 10.9261 4.52476 8.30363
lowerback -1.39285 1.06002 -8.44351
upperback 4.42123 1.82335 -1.10256
thorax 5.18853 0.579188 3.67798
lowerneck -12.1077 -4.81023 -0.576746
upperneck 47.6093 -7.68647 0.515917
head 21.3418 -2.86373 -1.14196
rclavicle -4.96962e-015 2.26615e-014
rhumerus -9.31899 38.6174 -84.8098
rradius 134.255
rwrist -25.0096
rhand -46.0538 -56.6205
rfingers 7.12502
rthumb -18.7974 -445.732
lclavicle -4.96962e-015 2.26615e-014
lhumerus -74.5459 -11.1589 104.01
lradius 63.2196
lwrist 16.7112
lhand -2.53389 10.7232
lfingers 7.12502
lthumb 23.1612 39.3508
rfemur -48.0099 -7.26133 14.1777
rtibia 64.9388
rfoot 6.27849 11.9201
rtoes 19.6742
lfemur -19.4389 7.56168 -32.2692
ltibia 32.1725
lfoot -19.6096 -10.387
ltoes 34.6836
354
root 4.75508 16.713 -16.5026 10.7728 4.59775 8.84096
lowerback -1.16899 1.10648 -8.90457
upperback 4.43764 1.8887 -1.27456
thorax 5.0678 0.601412 3.7519
lowerneck -12.0503 -4.88325 -0.580702
upperneck 47.6393 -7.81891 0.560376
head 21.3534 -2.90681 -1.14266
rclavicle 1.11319e-014 -1.11319e-014
rhumerus -9.44509 38.6584 -84.8068
rradius 134.352
rwrist -24.6175
rhand -46.0558 -56.1933
rfingers 7.12502
rthumb -18.7994 -445.305
lclavicle 1.11319e-014 -1.11319e-014
lhumerus -74.2816 -11.1271 103.999
lradius 62.8138
lwrist 16.1697
lhand -3.42381 10.2272
lfingers 7.12502
lthumb 22.3072 38.9595
rfemur -48.4388 -7.47748 13.511
rtibia 65.9489
rfoot 6.63163 11.9186
rtoes 19.58
lfemur -19.0258 7.89948 -32.9086
ltibia 32.0052
lfoot -20.0055 -10.7561
ltoes 34.8683
355
root 4.76804 16.6839 -16.4963 10.6428 4.6284 9.45434
lowerback -0.98274 1.16048 -9.47809
upperback 4.47741 1.97268 -1.47026
thorax 4.98991 0.626621 3.86456
lowerneck -11.9775 -4.9506 -0.584013
upperneck 47.6783 -7.9488 0.619435
head 21.3688 -2.94695 -1.13493
rclavicle 2.98177e-015 -2.22639e-014
rhumerus -9.59376 38.732 -84.8689
rradius 134.45
rwrist -24.4167
rhand -46.0947 -55.9123
rfingers 7.12502
rthumb -18.8368 -445.02
lclavicle 2.98177e-015 -2.22639e-014
lhumerus -73.9393 -11.1057 103.937
lradius 62.395
lwrist 15.6541
lhand -4.13998 9.80603
lfingers 7.12502
lthumb 21.6195 38.6191
rfemur -48.7669 -7.63518 12.7533
rtibia 66.8214
rfoot 6.92176 11.9178
rtoes 19.5078
lfemur -18.6627 8.38311 -33.596
ltibia 31.8417
lfoot -20.1546 -11.4428
ltoes 35.3634
356
root 4.77761 16.654 -16.489 10.5434 4.61489 10.0929
lowerback -0.853216 1.22644 -10.0978
upperback 4.54042 2.08136 -1.68072
thorax 4.96532 0.659498 3.98883
lowerneck -11.8877 -5.01163 -0.585669
upperneck 47.7274 -8.0762 0.695417
head 21.3888 -2.98361 -1.11767
rclavicle -2.74323e-014 3.77691e-014
rhumerus -9.78469 38.8264 -85.0169
rradius 134.546
rwrist -24.4285
rhand -46.1808 -55.8002
rfingers 7.12502
rthumb -18.9196 -444.9
lclavicle -2.74323e-014 3.77691e-014
lhumerus -73.5193 -11.1062 103.821
lradius 61.9677
lwrist 15.2346
lhand -4.69081 9.50458
lfingers 7.12502
lthumb 21.0905 38.3776
rfemur -49.0798 -7.7165 11.9751
rtibia 67.6123
rfoot 7.12479 11.8809
rtoes 19.3687
lfemur -18.3839 8.94997 -34.2744
ltibia 31.7137
lfoot -20.0723 -12.4018
ltoes 36.339
357
root 4.78552 16.6325 -16.4807 10.4707 4.56012 10.6812
lowerback -0.79186 1.30326 -10.6507
upperback 4.62929 2.21234 -1.89864
thorax 5.00514 0.702169 4.06998
lowerneck -11.7898 -5.05941 -0.576224
upperneck 47.7883 -8.19014 0.781483
head 21.416 -3.01166 -1.09429
rclavicle 2.20651e-014 -2.62396e-014
rhumerus -10.0109 38.9345 -85.2614
rradius 134.627
rwrist -24.6394
rhand -46.3194 -55.8314
rfingers 7.12502
rthumb -19.0529 -444.918
lclavicle 2.20651e-014 -2.62396e-014
lhumerus -73.0313 -11.1288 103.641
lradius 61.5466
lwrist 14.9649
lhand -5.06941 9.40395
lfingers 7.12502
lthumb 20.7267 38.3171
rfemur -49.3386 -7.71441 11.2638
rtibia 68.291
rfoot 7.23109 11.7919
rtoes 19.1463
lfemur -18.1907 9.53002 -34.8711
ltibia 31.6516
lfoot -19.8354 -13.5062
ltoes 37.6486
358
root 4.79358 16.6194 -16.4713 10.4128 4.48023 11.147
lowerback -0.770309 1.38501 -11.0445
upperback 4.72775 2.34995 -2.10158
thorax 5.07896 0.751907 4.07953
lowerneck -11.6879 -5.0883 -0.556502
upperneck 47.8701 -8.2728 0.857402
head 21.4565 -3.02673 -1.07197
rclavicle 7.55382e-015 3.97569e-015
rhumerus -10.281 39.0566 -85.5935
rradius 134.682
rwrist -24.9836
rhand -46.4584 -55.9836
rfingers 7.12502
rthumb -19.1865 -445.057
lclavicle 7.55382e-015 3.97569e-015
lhumerus -72.526 -11.1421 103.412
lradius 61.1594
lwrist 14.8592
lhand -5.34629 9.46829
lfingers 7.12502
lthumb 20.4607 38.4102
rfemur -49.5308 -7.63761 10.7004
rtibia 68.8446
rfoot 7.26982 11.6224
rtoes 18.9291
lfemur -18.0666 10.0264 -35.319
ltibia 31.6478
lfoot -19.488 -14.5917
ltoes 39.2077
